<svg width="372" height="162" viewBox="0 0 372 162" fill="none" xmlns="http://www.w3.org/2000/svg">
<path fill-rule="evenodd" clip-rule="evenodd" d="M162.64 0.890957C160.202 0.927882 158.266 0.984351 154.855 1.11818C152.386 1.21497 138.845 1.79144 71.453 4.66865C62.759 5.0398 51.5316 5.51911 46.5034 5.73371C35.6547 6.19679 33.0374 6.33136 29.3984 6.61305C24.8174 6.96774 20.7006 7.5422 17.6222 8.25635C14.7132 8.93121 12.5959 9.6463 10.8936 10.5287C9.7549 11.119 3.3856 14.7944 2.79531 15.2018C-0.45617 17.4459 -0.80299 19.8292 1.68266 22.8475C2.88094 24.3025 3.96647 25.2769 9.7904 30.1254C12.1271 32.0707 26.1795 43.7643 41.018 56.1111C55.8565 68.458 70.1627 80.3632 72.8096 82.5672C75.4564 84.7712 90.0163 96.8882 105.165 109.493C120.313 122.099 137.064 136.037 142.388 140.468C152.452 148.842 153.503 149.701 155.346 151.059C159.859 154.383 165.029 156.792 171.488 158.581C178.471 160.515 186.218 161.61 194.83 161.879C196.711 161.938 201.325 161.904 203.456 161.816C206.59 161.687 209.76 161.476 213.677 161.136C216.748 160.87 217.403 160.807 251.232 157.566C274.175 155.368 294.095 153.459 298.241 153.062C336.453 149.404 334.992 149.546 338.703 149.118C344.045 148.502 347.717 147.869 351.031 146.993C352.346 146.645 360.07 144.386 362.178 143.734C364.298 143.077 365.847 142.442 367.098 141.715C372.36 138.659 372.618 135.155 367.911 130.66C366.203 129.029 366.083 128.936 352.536 118.756C338.42 108.148 328.258 100.511 320.242 94.4867C311.854 88.1835 300.713 79.8112 289.689 71.5268C285.229 68.1758 278.275 62.9501 274.234 59.9139C270.195 56.8778 262.923 51.4128 258.074 47.7695C253.225 44.1262 246.908 39.3789 244.036 37.2198C215.131 15.4925 211.653 12.8833 210.27 11.8883C204.883 8.01359 199.541 5.65045 191.955 3.78583C185.783 2.26888 178.804 1.31675 171.488 0.993183C170.171 0.934955 165.801 0.841725 165 0.853567C164.805 0.857958 163.743 0.874233 162.64 0.890957Z" fill="white"/>
</svg>
