<svg width="286" height="60" viewBox="0 0 286 60" fill="none" xmlns="http://www.w3.org/2000/svg">
<path d="M58.9773 30.9956C58.995 30.5923 59.0038 30.1858 59.0038 29.7773C59.0038 13.6207 45.8606 0.477539 29.704 0.477539C15.4325 0.477539 3.51282 10.732 0.925563 24.2608C0.584095 26.0471 0.404785 27.8922 0.404785 29.7773C0.404785 30.006 0.406345 30.2352 0.412062 30.4618L37.3541 38.7802L37.3504 38.7839L49.6204 41.5473C49.608 41.5665 49.596 41.5879 49.5835 41.6071C45.542 48.3751 38.1441 52.9161 29.704 52.9161C20.0795 52.9161 11.8084 47.0108 8.32665 38.6326L1.31953 37.0557C4.56374 49.7025 16.0593 59.0771 29.704 59.0771C41.1237 59.0771 51.0388 52.5097 55.8687 42.9543C56.8001 41.1165 57.5407 39.168 58.0688 37.1353L52.0528 35.7798C52.0476 35.8011 52.0403 35.824 52.0351 35.8447L46.8954 34.6883H46.8939L40.9709 33.3542C40.9782 33.3328 40.985 33.31 40.9923 33.2892C40.9923 33.2892 40.9928 33.288 40.9938 33.2855C40.9954 33.2767 40.999 33.27 41.0011 33.2611C41.341 32.1593 41.5239 30.9904 41.5239 29.7778C41.5239 28.8168 41.4096 27.8839 41.1913 26.9899C39.9361 21.8133 35.2632 17.9569 29.7046 17.9569C23.7535 17.9569 18.816 22.3783 18.0047 28.1079C18.0011 28.1323 17.9974 28.1552 17.9943 28.1802L6.92803 25.688C6.93167 25.6651 6.93687 25.6407 6.94051 25.6178C8.90668 14.8369 18.3659 6.63956 29.7046 6.63956C42.4096 6.63956 52.7539 16.9294 52.8418 29.6131V29.6146L58.9773 30.9956ZM24.054 29.4712C24.054 29.4623 24.0555 29.4556 24.0555 29.4468C24.2088 26.7888 26.2031 24.6184 28.7779 24.1943H28.7794C29.0804 24.1433 29.3885 24.1168 29.7035 24.1168C30.9005 24.1168 32.0091 24.4916 32.9249 25.1272L32.9285 25.1288C34.3983 26.1516 35.363 27.8532 35.363 29.7773C35.363 30.5273 35.2169 31.2435 34.9492 31.8984C34.9477 31.9056 34.944 31.914 34.9404 31.9212L34.9389 31.9264C34.93 31.9477 34.9212 31.967 34.9123 31.9883L24.0503 29.5434C24.0519 29.519 24.0519 29.4961 24.054 29.4712Z" fill="#FFF7F2"/>
<path d="M88.6452 41.9851C84.7241 41.9851 80.8396 40.6659 77.7613 37.8808L81.0961 33.8863C83.4415 35.7919 85.8234 37.0013 88.7551 37.0013C91.1005 37.0013 92.4564 36.0851 92.4564 34.5826V34.5093C92.4564 33.0801 91.5769 32.3106 87.2893 31.2478C82.0856 29.9652 78.7874 28.4627 78.7874 23.4056V23.3323C78.7874 18.6782 82.4887 15.6 87.7657 15.6C91.5402 15.6 94.6551 16.7726 97.2937 18.8615L94.362 23.1124C92.0533 21.5366 89.8912 20.5838 87.6924 20.5838C85.4936 20.5838 84.3943 21.5366 84.3943 22.8192V22.8925C84.3943 24.6149 85.4936 25.0913 89.9278 26.264C95.1315 27.6565 98.0632 29.4888 98.0632 33.9596V34.0329C98.0632 39.1267 94.1787 41.9851 88.6452 41.9851Z" fill="#FFF7F2"/>
<path d="M113.662 42.0218C106.772 42.0218 102.558 38.2106 102.558 30.6248V15.9664H108.201V30.4783C108.201 34.6925 110.253 36.818 113.735 36.818C117.216 36.818 119.268 34.7658 119.268 30.6615V15.9664H124.912V30.4416C124.912 38.2106 120.551 42.0218 113.662 42.0218Z" fill="#FFF7F2"/>
<path d="M130.66 41.6187V15.9664H142.387C145.648 15.9664 148.14 16.8459 149.863 18.5683C151.329 20.0341 152.061 21.9764 152.061 24.4317V24.5049C152.061 28.646 149.826 31.2478 146.565 32.4571L152.831 41.6187H146.235L140.738 33.4099H136.304V41.6187H130.66ZM136.304 28.4261H142.02C144.806 28.4261 146.345 26.9969 146.345 24.7981V24.7248C146.345 22.2695 144.696 21.0602 141.911 21.0602H136.304V28.4261Z" fill="#FFF7F2"/>
<path d="M164.599 41.8019L154.228 15.9664H160.458L167.164 34.0329L173.87 15.9664H179.954L169.583 41.8019H164.599Z" fill="#FFF7F2"/>
<path d="M184.168 41.6187V15.9664H189.811V41.6187H184.168Z" fill="#FFF7F2"/>
<path d="M205.347 41.9851C201.426 41.9851 197.542 40.6659 194.463 37.8808L197.798 33.8863C200.143 35.7919 202.525 37.0013 205.457 37.0013C207.802 37.0013 209.158 36.0851 209.158 34.5826V34.5093C209.158 33.0801 208.279 32.3106 203.991 31.2478C198.787 29.9652 195.489 28.4627 195.489 23.4056V23.3323C195.489 18.6782 199.191 15.6 204.468 15.6C208.242 15.6 211.357 16.7726 213.996 18.8615L211.064 23.1124C208.755 21.5366 206.593 20.5838 204.394 20.5838C202.196 20.5838 201.096 21.5366 201.096 22.8192V22.8925C201.096 24.6149 202.196 25.0913 206.63 26.264C211.833 27.6565 214.765 29.4888 214.765 33.9596V34.0329C214.765 39.1267 210.881 41.9851 205.347 41.9851Z" fill="#FFF7F2"/>
<path d="M219.919 41.6187V15.9664H225.563V41.6187H219.919Z" fill="#FFF7F2"/>
<path d="M244.433 42.0584C236.518 42.0584 230.838 36.1584 230.838 28.8658V28.7925C230.838 21.5 236.591 15.5267 244.507 15.5267C252.422 15.5267 258.102 21.4267 258.102 28.7192V28.7925C258.102 36.0851 252.349 42.0584 244.433 42.0584ZM244.507 36.8547C249.051 36.8547 252.202 33.2634 252.202 28.8658V28.7925C252.202 24.395 248.977 20.7304 244.433 20.7304C239.889 20.7304 236.738 24.3217 236.738 28.7192V28.7925C236.738 33.1901 239.962 36.8547 244.507 36.8547Z" fill="#FFF7F2"/>
<path d="M263.108 41.6187V15.9664H268.312L280.332 31.7609V15.9664H285.902V41.6187H281.102L268.679 25.3112V41.6187H263.108Z" fill="#FFF7F2"/>
</svg>
