<svg width="28" height="29" viewBox="0 0 28 29" fill="none" xmlns="http://www.w3.org/2000/svg">
<g clip-path="url(#clip0_962_1835)">
<path d="M19.669 0.477657C20.7533 0.440217 21.834 0.62412 22.8449 1.01814C23.8558 1.41217 24.7759 2.00805 25.5489 2.76943C26.294 3.54239 26.8766 4.45688 27.2623 5.45885C27.648 6.46082 27.8289 7.52994 27.7943 8.60302V20.1313C27.7943 22.5388 27.0073 24.6107 25.5026 26.0691C23.9063 27.5428 21.794 28.3287 19.6227 28.2567H8.18698C6.03382 28.3234 3.94142 27.5372 2.36496 26.0691C1.5835 25.2864 0.971584 24.3511 0.567342 23.3216C0.1631 22.2921 -0.024812 21.1903 0.015313 20.085V8.60302C0.015313 3.71854 3.2562 0.477657 8.14068 0.477657H19.669ZM19.7269 3.05879H8.18698C6.50866 3.05879 5.06184 3.5565 4.10115 4.50562C3.58781 5.05238 3.18998 5.69704 2.93144 6.40105C2.67291 7.10507 2.55897 7.85398 2.59645 8.60302V20.085C2.59645 21.8212 3.09416 23.2102 4.10115 24.2287C5.22425 25.2221 6.68904 25.7408 8.18698 25.6756H19.6227C21.1206 25.7408 22.5854 25.2221 23.7085 24.2287C24.2477 23.6953 24.6702 23.0556 24.9491 22.3502C25.2281 21.6449 25.3574 20.8893 25.329 20.1313V8.60302C25.3663 7.11299 24.8273 5.666 23.8243 4.56349C23.2775 4.05015 22.6328 3.65232 21.9288 3.39379C21.2248 3.13525 20.4759 3.02132 19.7269 3.05879ZM13.9048 7.14463C17.8286 7.14463 21.0811 10.3855 21.0811 14.3209C21.0811 16.2241 20.325 18.0494 18.9792 19.3953C17.6334 20.7411 15.8081 21.4971 13.9048 21.4971C12.0016 21.4971 10.1763 20.7411 8.83045 19.3953C7.48465 18.0494 6.72858 16.2241 6.72858 14.3209C6.72858 12.4176 7.48465 10.5923 8.83045 9.2465C10.1763 7.90069 12.0016 7.14463 13.9048 7.14463ZM13.9048 9.71419C12.688 9.72027 11.5228 10.2064 10.6623 11.0668C9.80188 11.9272 9.3158 13.0925 9.30971 14.3093C9.3158 15.5261 9.80188 16.6914 10.6623 17.5518C11.5228 18.4123 12.688 18.8983 13.9048 18.9044C15.1217 18.8983 16.2869 18.4123 17.1473 17.5518C18.0078 16.6914 18.4939 15.5261 18.4999 14.3093C18.4939 13.0925 18.0078 11.9272 17.1473 11.0668C16.2869 10.2064 15.1217 9.72027 13.9048 9.71419ZM21.3589 5.35056C21.7886 5.35056 22.2008 5.52129 22.5047 5.82518C22.8086 6.12907 22.9793 6.54124 22.9793 6.97101C22.9793 7.40077 22.8086 7.81294 22.5047 8.11683C22.2008 8.42072 21.7886 8.59145 21.3589 8.59145C20.9291 8.59145 20.5169 8.42072 20.213 8.11683C19.9092 7.81294 19.7384 7.40077 19.7384 6.97101C19.7384 6.54124 19.9092 6.12907 20.213 5.82518C20.5169 5.52129 20.9291 5.35056 21.3589 5.35056Z" fill="white"/>
</g>
<defs>
<clipPath id="clip0_962_1835">
<rect width="27.779" height="27.779" fill="white" transform="translate(0.0153809 0.477539)"/>
</clipPath>
</defs>
</svg>
