<svg width="29" height="29" viewBox="0 0 29 29" fill="none" xmlns="http://www.w3.org/2000/svg">
<g clip-path="url(#clip0_962_1837)">
<path d="M26.3561 0.477539H2.67444C1.5517 0.477539 0.625732 1.36878 0.625732 2.46837V26.2657C0.625732 27.3653 1.5517 28.2566 2.67444 28.2566H26.3561C27.4904 28.2566 28.4048 27.3653 28.4048 26.2657V2.46837C28.4048 1.36878 27.4788 0.477539 26.3561 0.477539ZM9.04046 23.7425H4.85046V11.1725H9.04046V23.7425ZM6.95704 9.45943H6.92231C5.51021 9.45943 4.60739 8.49873 4.60739 7.29498C4.60739 6.06807 5.53336 5.13053 6.98019 5.13053C8.41544 5.13053 9.29511 6.05649 9.31826 7.29498C9.31826 8.49873 8.41544 9.45943 6.94546 9.45943H6.95704ZM24.1685 23.7425H19.9669V17.0292C19.9669 15.3509 19.365 14.1934 17.8487 14.1934C16.6913 14.1934 15.9968 14.9689 15.6843 15.7213C15.5685 15.9875 15.557 16.3579 15.557 16.7398V23.7425H11.367C11.367 23.7425 11.4248 12.3762 11.367 11.1956H15.5685V12.9781C15.9478 12.3198 16.4998 11.7778 17.1649 11.4106C17.8299 11.0434 18.5827 10.865 19.3419 10.8947C22.1082 10.8947 24.18 12.7003 24.18 16.5547V23.7425H24.1685Z" fill="white"/>
</g>
<defs>
<clipPath id="clip0_962_1837">
<rect width="27.779" height="27.779" fill="white" transform="translate(0.625732 0.477539)"/>
</clipPath>
</defs>
</svg>
