<svg width="52" height="52" viewBox="0 0 52 52" fill="none" xmlns="http://www.w3.org/2000/svg">
<path d="M46.886 6.0547H4.26221C3.38842 6.0547 2.66382 5.33009 2.66382 4.4563C2.66382 3.58251 3.38842 2.85791 4.26221 2.85791H46.886C47.7598 2.85791 48.4844 3.58251 48.4844 4.4563C48.4844 5.33009 47.7598 6.0547 46.886 6.0547Z" fill="url(#paint0_linear_958_1682)"/>
<path d="M35.5263 47.8049C35.2493 48.359 34.6739 48.6787 34.0984 48.6787C33.864 48.6787 33.6083 48.6147 33.3951 48.5082L25.5737 44.6081L17.7522 48.5082C17.5391 48.6147 17.2833 48.6787 17.0489 48.6787C16.4735 48.6787 15.8981 48.359 15.621 47.8049C15.2161 46.995 15.5358 46.036 16.3456 45.6524L23.9753 41.8375V36.4243H27.1721V41.8375L34.8017 45.6524C35.6116 46.036 35.9313 46.995 35.5263 47.8049Z" fill="url(#paint1_linear_958_1682)"/>
<path d="M6.39331 4.45654V30.2439C6.39331 34.2932 8.5245 36.4244 12.5738 36.4244H38.5743C42.6236 36.4244 44.7547 34.2932 44.7547 30.2439V4.45654H6.39331ZM36.1874 18.4798L29.4741 24.0848C28.8561 24.5963 28.0675 24.8094 27.3216 24.6815C26.5544 24.5537 25.8937 24.0848 25.4888 23.4028L23.251 19.6732L17.0066 24.8733C16.7083 25.1291 16.346 25.2357 15.9837 25.2357C15.5361 25.2357 15.0673 25.0438 14.7476 24.6602C14.1722 23.9782 14.2787 22.9766 14.9607 22.4012L21.6739 16.7961C22.292 16.2846 23.0805 16.0715 23.8265 16.1994C24.5937 16.3273 25.2543 16.7961 25.6593 17.4781L27.897 21.2077L34.1414 16.0076C34.8234 15.4322 35.8251 15.5387 36.4005 16.2207C36.9546 16.9027 36.8693 17.9044 36.1874 18.4798Z" fill="url(#paint2_linear_958_1682)"/>
<defs>
<linearGradient id="paint0_linear_958_1682" x1="2.66341" y1="4.4563" x2="48.4844" y2="4.4563" gradientUnits="userSpaceOnUse">
<stop stop-color="#F26E23"/>
<stop offset="1" stop-color="#F24606"/>
</linearGradient>
<linearGradient id="paint1_linear_958_1682" x1="15.4456" y1="42.5515" x2="35.7015" y2="42.5515" gradientUnits="userSpaceOnUse">
<stop stop-color="#F26E23"/>
<stop offset="1" stop-color="#F24606"/>
</linearGradient>
<linearGradient id="paint2_linear_958_1682" x1="6.39297" y1="20.4405" x2="44.7547" y2="20.4405" gradientUnits="userSpaceOnUse">
<stop stop-color="#F26E23"/>
<stop offset="1" stop-color="#F24606"/>
</linearGradient>
</defs>
</svg>
