<svg width="52" height="52" viewBox="0 0 52 52" fill="none" xmlns="http://www.w3.org/2000/svg">
<path d="M37.1021 33.6415L28.5171 25.8428H22.7583L14.1733 33.6415C11.7721 35.809 10.9858 39.1453 12.1546 42.1628C13.3233 45.159 16.1708 47.0928 19.3796 47.0928H31.8958C35.1258 47.0928 37.9521 45.159 39.1208 42.1628C40.2896 39.1453 39.5033 35.809 37.1021 33.6415ZM29.5158 38.8903H21.7808C20.9733 38.8903 20.3358 38.2315 20.3358 37.4453C20.3358 36.659 20.9946 36.0003 21.7808 36.0003H29.5158C30.3233 36.0003 30.9608 36.659 30.9608 37.4453C30.9608 38.2315 30.3021 38.8903 29.5158 38.8903Z" fill="url(#paint0_linear_958_1668)"/>
<path d="M39.1421 9.52277C37.9734 6.52652 35.1259 4.59277 31.9171 4.59277H19.3796C16.1709 4.59277 13.3234 6.52652 12.1546 9.52277C11.0071 12.5403 11.7934 15.8765 14.1946 18.044L22.7796 25.8428H28.5384L37.1234 18.044C39.5034 15.8765 40.2896 12.5403 39.1421 9.52277ZM29.5159 15.7065H21.7809C20.9734 15.7065 20.3359 15.0478 20.3359 14.2615C20.3359 13.4753 20.9946 12.8165 21.7809 12.8165H29.5159C30.3234 12.8165 30.9609 13.4753 30.9609 14.2615C30.9609 15.0478 30.3021 15.7065 29.5159 15.7065Z" fill="url(#paint1_linear_958_1668)"/>
<defs>
<linearGradient id="paint0_linear_958_1668" x1="11.6208" y1="36.4678" x2="39.6543" y2="36.4678" gradientUnits="userSpaceOnUse">
<stop stop-color="#F26E23"/>
<stop offset="1" stop-color="#F24606"/>
</linearGradient>
<linearGradient id="paint1_linear_958_1668" x1="11.635" y1="15.2178" x2="39.6621" y2="15.2178" gradientUnits="userSpaceOnUse">
<stop stop-color="#F26E23"/>
<stop offset="1" stop-color="#F24606"/>
</linearGradient>
</defs>
</svg>
