<svg width="176" height="35" viewBox="0 0 176 35" fill="none" xmlns="http://www.w3.org/2000/svg">
<path d="M85.8518 1.50204L85.8877 2.50139L85.8518 1.50204ZM175.069 30.3149C175.61 30.2029 175.958 29.6737 175.846 29.1329L174.02 20.32C173.908 19.7792 173.379 19.4315 172.838 19.5436C172.297 19.6556 171.95 20.1848 172.062 20.7256L173.684 28.5593L165.851 30.1819C165.31 30.2939 164.962 30.8231 165.074 31.3639C165.186 31.9047 165.715 32.2523 166.256 32.1403L175.069 30.3149ZM3.58378 32.9287C3.99838 32.5639 4.03871 31.932 3.67384 31.5174C3.30898 31.1028 2.6771 31.0625 2.2625 31.4273L3.58378 32.9287ZM10.5805 25.2144C10.1176 25.5156 9.98644 26.135 10.2876 26.5979C10.5888 27.0609 11.2082 27.192 11.6712 26.8908L10.5805 25.2144ZM15.9939 24.2281C16.4706 23.9493 16.6311 23.3369 16.3523 22.8601C16.0735 22.3833 15.4611 22.2228 14.9843 22.5016L15.9939 24.2281ZM24.0938 17.6369C23.5978 17.8798 23.3926 18.4788 23.6355 18.9748C23.8784 19.4708 24.4774 19.676 24.9734 19.4331L24.0938 17.6369ZM29.5791 17.2661C30.0823 17.0386 30.3058 16.4462 30.0783 15.943C29.8507 15.4397 29.2583 15.2162 28.7551 15.4438L29.5791 17.2661ZM38.2618 11.4657C37.7467 11.6648 37.4905 12.2439 37.6897 12.759C37.8888 13.2741 38.4678 13.5303 38.983 13.3312L38.2618 11.4657ZM43.7603 11.5571C44.2805 11.3717 44.552 10.7997 44.3666 10.2795C44.1813 9.75924 43.6092 9.48778 43.089 9.67316L43.7603 11.5571ZM52.8818 6.47554C52.3524 6.63269 52.0505 7.18929 52.2077 7.71874C52.3648 8.2482 52.9214 8.55002 53.4509 8.39287L52.8818 6.47554ZM58.3574 7.01149C58.8911 6.86946 59.2086 6.32166 59.0666 5.78795C58.9246 5.25424 58.3768 4.93672 57.8431 5.07875L58.3574 7.01149ZM67.8835 2.73595C67.3418 2.84377 66.9901 3.37028 67.098 3.91194C67.2058 4.45359 67.7323 4.80528 68.274 4.69746L67.8835 2.73595ZM73.2824 3.79506C73.8277 3.70749 74.1988 3.19444 74.1112 2.64915C74.0236 2.10385 73.5106 1.73279 72.9653 1.82036L73.2824 3.79506ZM83.2298 0.634572C82.6787 0.670701 82.2612 1.14675 82.2973 1.69785C82.3335 2.24895 82.8095 2.66642 83.3606 2.63029L83.2298 0.634572ZM88.4638 2.46117C89.0161 2.46327 89.4655 2.01726 89.4676 1.46497C89.4697 0.912694 89.0237 0.463282 88.4714 0.461186L88.4638 2.46117ZM99.0273 1.1737C98.4792 1.10636 97.9802 1.49615 97.9129 2.04432C97.8455 2.59248 98.2353 3.09144 98.7835 3.15878L99.0273 1.1737ZM103.927 3.90745C104.471 3.99847 104.987 3.63066 105.078 3.08592C105.169 2.54119 104.801 2.02581 104.256 1.9348L103.927 3.90745ZM114.584 4.04207C114.046 3.91415 113.507 4.246 113.379 4.78327C113.251 5.32053 113.583 5.85977 114.12 5.98768L114.584 4.04207ZM119.173 7.26679C119.706 7.40965 120.255 7.09298 120.397 6.5595C120.54 6.02601 120.224 5.47772 119.69 5.33486L119.173 7.26679ZM129.783 8.30727C129.257 8.1389 128.694 8.42881 128.526 8.9548C128.357 9.48079 128.647 10.0437 129.173 10.2121L129.783 8.30727ZM134.124 11.8566C134.647 12.0363 135.216 11.7586 135.395 11.2363C135.575 10.7141 135.297 10.1451 134.775 9.9654L134.124 11.8566ZM144.645 13.5889C144.13 13.3882 143.55 13.6425 143.35 14.157C143.149 14.6715 143.403 15.2514 143.918 15.4521L144.645 13.5889ZM148.763 17.3991C149.273 17.6102 149.858 17.3676 150.069 16.8573C150.28 16.3469 150.038 15.7621 149.527 15.551L148.763 17.3991ZM159.151 19.773C158.651 19.5399 158.056 19.7568 157.823 20.2574C157.589 20.7581 157.806 21.353 158.307 21.5861L159.151 19.773ZM163.002 23.8449C163.496 24.091 164.097 23.8897 164.343 23.3953C164.589 22.9009 164.388 22.3006 163.893 22.0545L163.002 23.8449ZM173.183 27.0972C172.71 26.8117 172.096 26.9635 171.81 27.4363C171.525 27.909 171.676 28.5237 172.149 28.8092L173.183 27.0972ZM1.75592 34.6277C2.32729 34.0644 2.93719 33.4977 3.58378 32.9287L2.2625 31.4273C1.58995 32.0192 0.952212 32.6115 0.351793 33.2035L1.75592 34.6277ZM11.6712 26.8908C13.0448 25.9972 14.4884 25.1084 15.9939 24.2281L14.9843 22.5016C13.4535 23.3967 11.9828 24.3022 10.5805 25.2144L11.6712 26.8908ZM24.9734 19.4331C26.4751 18.6977 28.0122 17.9746 29.5791 17.2661L28.7551 15.4438C27.1702 16.1604 25.6145 16.8922 24.0938 17.6369L24.9734 19.4331ZM38.983 13.3312C40.5604 12.7214 42.1545 12.1293 43.7603 11.5571L43.089 9.67316C41.4665 10.2513 39.8559 10.8495 38.2618 11.4657L38.983 13.3312ZM53.4509 8.39287C55.0863 7.90748 56.7234 7.44631 58.3574 7.01149L57.8431 5.07875C56.1904 5.51857 54.535 5.98488 52.8818 6.47554L53.4509 8.39287ZM68.274 4.69746C69.9605 4.36174 71.6319 4.06013 73.2824 3.79506L72.9653 1.82036C71.289 2.08957 69.5931 2.39562 67.8835 2.73595L68.274 4.69746ZM83.3606 2.63029C84.2137 2.57436 85.0564 2.53127 85.8877 2.50139L85.8159 0.502684C84.9641 0.533293 84.1017 0.57741 83.2298 0.634572L83.3606 2.63029ZM85.8877 2.50139C86.7323 2.47104 87.5913 2.45786 88.4638 2.46117L88.4714 0.461186C87.5739 0.457779 86.6883 0.471335 85.8159 0.502684L85.8877 2.50139ZM98.7835 3.15878C100.473 3.36633 102.19 3.61722 103.927 3.90745L104.256 1.9348C102.493 1.64017 100.748 1.38503 99.0273 1.1737L98.7835 3.15878ZM114.12 5.98768C115.8 6.38754 117.486 6.81503 119.173 7.26679L119.69 5.33486C117.986 4.87854 116.282 4.44645 114.584 4.04207L114.12 5.98768ZM129.173 10.2121C130.835 10.7441 132.487 11.2934 134.124 11.8566L134.775 9.9654C133.125 9.39765 131.459 8.84381 129.783 8.30727L129.173 10.2121ZM143.918 15.4521C145.564 16.0946 147.181 16.7449 148.763 17.3991L149.527 15.551C147.934 14.8917 146.304 14.2364 144.645 13.5889L143.918 15.4521ZM158.307 21.5861C159.943 22.3479 161.511 23.103 163.002 23.8449L163.893 22.0545C162.386 21.3044 160.802 20.5418 159.151 19.773L158.307 21.5861ZM172.149 28.8092C172.929 29.2805 173.653 29.7354 174.317 30.1716L175.415 28.4999C174.728 28.0482 173.982 27.5798 173.183 27.0972L172.149 28.8092Z" fill="#FF5D00"/>
</svg>
