<svg width="173" height="53" viewBox="0 0 173 53" fill="none" xmlns="http://www.w3.org/2000/svg">
<path d="M91.5486 49.3645L91.3481 48.3848L91.5486 49.3645ZM171.466 0.343337C172.018 0.324784 172.481 0.757209 172.499 1.30918L172.802 10.3041C172.82 10.8561 172.388 11.3186 171.836 11.3371C171.284 11.3557 170.821 10.9233 170.803 10.3713L170.534 2.3758L162.539 2.64455C161.987 2.6631 161.524 2.23067 161.506 1.6787C161.487 1.12673 161.92 0.664223 162.471 0.645672L171.466 0.343337ZM4.19239 38.2044C4.68129 38.4613 4.86934 39.0659 4.61243 39.5548C4.35552 40.0437 3.75093 40.2318 3.26204 39.9749L4.19239 38.2044ZM12.8097 44.0532C12.2888 43.8696 12.0154 43.2985 12.199 42.7776C12.3827 42.2568 12.9538 41.9834 13.4746 42.167L12.8097 44.0532ZM18.303 43.7364C18.832 43.895 19.1323 44.4524 18.9737 44.9814C18.815 45.5104 18.2576 45.8107 17.7286 45.6521L18.303 43.7364ZM27.7277 48.2337C27.1885 48.1145 26.8479 47.5807 26.9671 47.0415C27.0863 46.5022 27.6201 46.1617 28.1594 46.2809L27.7277 48.2337ZM33.146 47.3017C33.6887 47.4043 34.0454 47.9274 33.9429 48.47C33.8403 49.0127 33.3172 49.3695 32.7746 49.2669L33.146 47.3017ZM42.9509 50.8933C42.4034 50.8211 42.018 50.3187 42.0901 49.7712C42.1623 49.2236 42.6647 48.8383 43.2122 48.9104L42.9509 50.8933ZM48.2731 49.509C48.8223 49.5666 49.2209 50.0586 49.1633 50.6078C49.1057 51.1571 48.6138 51.5557 48.0645 51.4981L48.2731 49.509ZM58.335 52.2986C57.7834 52.2706 57.359 51.8007 57.387 51.2492C57.415 50.6976 57.8848 50.2731 58.4364 50.3011L58.335 52.2986ZM63.5302 50.4877C64.0823 50.5 64.52 50.9575 64.5077 51.5097C64.4954 52.0618 64.0378 52.4995 63.4857 52.4872L63.5302 50.4877ZM73.7954 52.3985C73.2436 52.4214 72.7778 51.9925 72.755 51.4407C72.7321 50.8889 73.161 50.4231 73.7128 50.4003L73.7954 52.3985ZM78.7929 50.0973C79.3435 50.0539 79.825 50.4651 79.8683 51.0157C79.9117 51.5663 79.5005 52.0477 78.9499 52.0911L78.7929 50.0973ZM89.2048 50.8252C88.6607 50.92 88.1429 50.5557 88.0481 50.0116C87.9534 49.4675 88.3177 48.9496 88.8618 48.8549L89.2048 50.8252ZM93.8612 47.8169C94.3974 47.6848 94.9393 48.0124 95.0714 48.5486C95.2036 49.0848 94.876 49.6267 94.3398 49.7588L93.8612 47.8169ZM104.431 46.5794C103.914 46.774 103.337 46.5128 103.142 45.9959C102.948 45.479 103.209 44.9023 103.726 44.7077L104.431 46.5794ZM108.548 42.7684C109.056 42.5516 109.644 42.7876 109.86 43.2956C110.077 43.8035 109.841 44.391 109.333 44.6078L108.548 42.7684ZM118.873 40.1268C118.381 40.3777 117.779 40.1823 117.528 39.6903C117.277 39.1982 117.473 38.596 117.965 38.3451L118.873 40.1268ZM122.574 35.9117C123.058 35.6472 123.666 35.8257 123.93 36.3105C124.195 36.7954 124.016 37.4028 123.531 37.6673L122.574 35.9117ZM132.64 32.4008C132.168 32.6884 131.553 32.5392 131.265 32.0677C130.978 31.5962 131.127 30.9808 131.598 30.6933L132.64 32.4008ZM136.023 27.9285C136.488 27.6309 137.106 27.7667 137.404 28.2319C137.702 28.6971 137.566 29.3156 137.101 29.6132L136.023 27.9285ZM145.839 23.7664C145.386 24.0827 144.763 23.9721 144.447 23.5194C144.13 23.0667 144.241 22.4433 144.694 22.1269L145.839 23.7664ZM148.944 19.0933C149.39 18.7679 150.015 18.8658 150.341 19.3121C150.666 19.7583 150.568 20.3839 150.122 20.7093L148.944 19.0933ZM158.48 14.3387C158.049 14.6833 157.419 14.6126 157.075 14.181C156.73 13.7493 156.801 13.1201 157.233 12.7756L158.48 14.3387ZM161.263 9.47423C161.686 9.11857 162.317 9.17278 162.672 9.5953C163.028 10.0178 162.974 10.6487 162.551 11.0043L161.263 9.47423ZM170.392 3.91482C169.999 4.30368 169.366 4.30099 168.977 3.90881C168.588 3.51662 168.591 2.88347 168.983 2.49461L170.392 3.91482ZM2.01571 36.9839C2.70372 37.3967 3.42995 37.8038 4.19239 38.2044L3.26204 39.9749C2.46897 39.5581 1.70963 39.1327 0.986654 38.6989L2.01571 36.9839ZM13.4746 42.167C15.0201 42.7118 16.6325 43.2355 18.303 43.7364L17.7286 45.6521C16.03 45.1428 14.3873 44.6094 12.8097 44.0532L13.4746 42.167ZM28.1594 46.2809C29.7921 46.6417 31.4563 46.9824 33.146 47.3017L32.7746 49.2669C31.0654 48.9439 29.3811 48.5992 27.7277 48.2337L28.1594 46.2809ZM43.2122 48.9104C44.889 49.1314 46.5777 49.3312 48.2731 49.509L48.0645 51.4981C46.3515 51.3185 44.6452 51.1166 42.9509 50.8933L43.2122 48.9104ZM58.4364 50.3011C60.1401 50.3876 61.8398 50.45 63.5302 50.4877L63.4857 52.4872C61.7759 52.4491 60.0572 52.3859 58.335 52.2986L58.4364 50.3011ZM73.7128 50.4003C75.4309 50.3292 77.1263 50.2285 78.7929 50.0973L78.9499 52.0911C77.2574 52.2244 75.5371 52.3265 73.7954 52.3985L73.7128 50.4003ZM88.8618 48.8549C89.704 48.7082 90.5332 48.5516 91.3481 48.3848L91.7492 50.3441C90.9142 50.5151 90.0657 50.6754 89.2048 50.8252L88.8618 48.8549ZM91.3481 48.3848C92.176 48.2153 93.0141 48.0257 93.8612 47.8169L94.3398 49.7588C93.4683 49.9736 92.6044 50.1691 91.7492 50.3441L91.3481 48.3848ZM103.726 44.7077C105.319 44.1079 106.928 43.4597 108.548 42.7684L109.333 44.6078C107.689 45.3096 106.053 45.9687 104.431 46.5794L103.726 44.7077ZM117.965 38.3451C119.503 37.5608 121.04 36.7482 122.574 35.9117L123.531 37.6673C121.983 38.5123 120.429 39.3337 118.873 40.1268L117.965 38.3451ZM131.598 30.6933C133.088 29.7847 134.565 28.8616 136.023 27.9285L137.101 29.6132C135.631 30.5538 134.142 31.4845 132.64 32.4008L131.598 30.6933ZM144.694 22.1269C146.142 21.1146 147.561 20.1016 148.944 19.0933L150.122 20.7093C148.728 21.7254 147.299 22.7463 145.839 23.7664L144.694 22.1269ZM157.233 12.7756C158.643 11.6498 159.989 10.5464 161.263 9.47423L162.551 11.0043C161.263 12.0882 159.904 13.2026 158.48 14.3387L157.233 12.7756ZM168.983 2.49461C169.631 1.85277 170.227 1.24007 170.77 0.659819L172.23 2.02573C171.669 2.62675 171.054 3.25762 170.392 3.91482L168.983 2.49461Z" fill="#F24606"/>
</svg>
