<svg width="54" height="54" viewBox="0 0 54 54" fill="none" xmlns="http://www.w3.org/2000/svg">
<path d="M25.5444 4.75928C13.9727 4.75928 4.56519 14.1668 4.56519 25.7384C4.56519 37.3101 13.9727 46.7176 25.5444 46.7176C37.116 46.7176 46.5235 37.3101 46.5235 25.7384C46.5235 14.1668 37.116 4.75928 25.5444 4.75928ZM25.5444 30.7072H18.9194C18.0139 30.7072 17.2631 29.9564 17.2631 29.0509C17.2631 28.1455 18.0139 27.3947 18.9194 27.3947H25.5444C26.4498 27.3947 27.2006 28.1455 27.2006 29.0509C27.2006 29.9564 26.4498 30.7072 25.5444 30.7072ZM32.1694 24.0822H18.9194C18.0139 24.0822 17.2631 23.3314 17.2631 22.4259C17.2631 21.5205 18.0139 20.7697 18.9194 20.7697H32.1694C33.0748 20.7697 33.8256 21.5205 33.8256 22.4259C33.8256 23.3314 33.0748 24.0822 32.1694 24.0822Z" fill="url(#paint0_linear_958_1676)"/>
<path d="M47.1871 48.9228C46.7896 48.9228 46.3921 48.7683 46.105 48.4812L41.9975 44.3737C41.4012 43.7774 41.4012 42.8058 41.9975 42.1874C42.5937 41.5912 43.5654 41.5912 44.1837 42.1874L48.2912 46.2949C48.8875 46.8912 48.8875 47.8628 48.2912 48.4812C47.9821 48.7683 47.5846 48.9228 47.1871 48.9228Z" fill="url(#paint1_linear_958_1676)"/>
<defs>
<linearGradient id="paint0_linear_958_1676" x1="4.56481" y1="25.7384" x2="46.5235" y2="25.7384" gradientUnits="userSpaceOnUse">
<stop stop-color="#F26E23"/>
<stop offset="1" stop-color="#F24606"/>
</linearGradient>
<linearGradient id="paint1_linear_958_1676" x1="41.5502" y1="45.3315" x2="48.7384" y2="45.3315" gradientUnits="userSpaceOnUse">
<stop stop-color="#F26E23"/>
<stop offset="1" stop-color="#F24606"/>
</linearGradient>
</defs>
</svg>
